<svg version="1.1" xmlns="http://www.w3.org/2000/svg" viewBox="0 0 353 347" width="353" height="347">
  <!-- svg-source:excalidraw -->
  
  <defs>
    <style>
      @font-face {
        font-family: "Virgil";
        src: url("https://excalidraw.com/Virgil.woff2");
      }
      @font-face {
        font-family: "Cascadia";
        src: url("https://excalidraw.com/Cascadia.woff2");
      }
    </style>
  </defs>
  <g stroke-linecap="round" transform="translate(10 10) rotate(0 166.5 163.5)"><path d="M102.89 12.68 C116.59 4.4, 134.65 3.84, 151.54 2.31 C168.42 0.79, 187.42 0.44, 204.19 3.52 C220.96 6.59, 237.71 12.35, 252.16 20.75 C266.6 29.15, 279.54 41.27, 290.84 53.92 C302.15 66.56, 313.15 81.84, 320 96.61 C326.86 111.39, 330.01 125.98, 331.97 142.56 C333.94 159.13, 334.92 179.39, 331.8 196.05 C328.67 212.71, 321.42 228.69, 313.2 242.54 C304.98 256.4, 294.31 268.05, 282.47 279.18 C270.63 290.32, 257.46 301.69, 242.17 309.35 C226.88 317.01, 207.43 322.41, 190.74 325.14 C174.06 327.86, 158.38 327.97, 142.05 325.71 C125.72 323.45, 108.14 318.74, 92.79 311.57 C77.44 304.41, 61.7 294.54, 49.95 282.71 C38.2 270.87, 29.97 255.35, 22.27 240.54 C14.57 225.73, 7.24 209.85, 3.73 193.84 C0.21 177.84, -0.55 160.61, 1.16 144.51 C2.88 128.41, 7.18 112.45, 14 97.25 C20.82 82.05, 30.81 65.49, 42.1 53.31 C53.39 41.12, 66.19 32.37, 81.76 24.16 C97.33 15.95, 121.4 7.28, 135.52 4.04 C149.64 0.81, 165.87 2.3, 166.49 4.73 M286.61 48.34 C299.91 57.6, 306.59 75.66, 314.15 90.69 C321.7 105.71, 329.25 122.13, 331.93 138.5 C334.61 154.87, 332.95 173.06, 330.25 188.89 C327.55 204.73, 322.34 218.86, 315.71 233.5 C309.08 248.14, 301.54 264.64, 290.46 276.72 C279.38 288.79, 264.25 298.44, 249.21 305.93 C234.17 313.43, 216.74 318.39, 200.21 321.7 C183.69 325.02, 166.68 326.89, 150.07 325.82 C133.45 324.75, 115.99 321.57, 100.51 315.3 C85.03 309.02, 69.54 299.19, 57.17 288.19 C44.8 277.19, 34.9 263.37, 26.31 249.3 C17.71 235.23, 10.14 220.23, 5.63 203.77 C1.11 187.31, -1.27 166.87, -0.79 150.54 C-0.32 134.21, 2.45 120.84, 8.48 105.8 C14.51 90.77, 24.52 73.48, 35.4 60.33 C46.27 47.18, 59.88 36.33, 73.71 26.89 C87.54 17.46, 102.49 8.53, 118.38 3.7 C134.28 -1.13, 151.85 -2.69, 169.09 -2.1 C186.33 -1.52, 205.59 1.58, 221.83 7.22 C238.07 12.85, 255.85 24.87, 266.52 31.71 C277.19 38.55, 283.18 44.86, 285.85 48.25 C288.51 51.64, 284.79 50.62, 282.51 52.05" stroke="#000" stroke-width="4" fill="none"></path></g><g transform="translate(34 57) rotate(0 143.5 133.5)"><text x="0" y="187" font-family="Virgil, Segoe UI Emoji" font-size="210.58823529411765px" fill="#fff" text-anchor="start" style="white-space: pre;" direction="ltr">JB</text></g></svg>