<svg version="1.1" xmlns="http://www.w3.org/2000/svg" viewBox="0 0 741.9657897949219 277.7237854003906" width="2225.8973693847656" height="833.1713562011719">
  <!-- svg-source:excalidraw -->
  
  <defs>
    <style>
      @font-face {
        font-family: "Virgil";
        src: url("https://excalidraw.com/Virgil.woff2");
      }
      @font-face {
        font-family: "Cascadia";
        src: url("https://excalidraw.com/Cascadia.woff2");
      }
    </style>
  </defs>
  <g transform="translate(295.84490966796875 28.012298583984375) rotate(0 92.5 12.5)"><text x="0" y="18" font-family="Virgil, Segoe UI Emoji" font-size="20px" fill="#000000" text-anchor="start" style="white-space: pre;" direction="ltr">Reference material</text></g><g transform="translate(311.07554626464844 122.07999420166016) rotate(0 76 12.5)"><text x="0" y="18" font-family="Virgil, Segoe UI Emoji" font-size="20px" fill="#000000" text-anchor="start" style="white-space: pre;" direction="ltr">Literature note</text></g><g transform="translate(22.00897216796875 193.80953979492188) rotate(0 58.5 25)"><text x="0" y="18" font-family="Virgil, Segoe UI Emoji" font-size="20px" fill="#000000" text-anchor="start" style="white-space: pre;" direction="ltr"></text><text x="0" y="43" font-family="Virgil, Segoe UI Emoji" font-size="20px" fill="#000000" text-anchor="start" style="white-space: pre;" direction="ltr">Atomic note</text></g><g transform="translate(316.1104736328125 223.13235473632812) rotate(0 58.5 12.5)"><text x="0" y="18" font-family="Virgil, Segoe UI Emoji" font-size="20px" fill="#000000" text-anchor="start" style="white-space: pre;" direction="ltr">Atomic note</text></g><g transform="translate(602.8668212890625 221.9008331298828) rotate(0 58.5 12.5)"><text x="0" y="18" font-family="Virgil, Segoe UI Emoji" font-size="20px" fill="#000000" text-anchor="start" style="white-space: pre;" direction="ltr">Atomic note</text></g><g transform="translate(270.1192626953125 10) rotate(0 121.63909912109375 29.033737182617188)"><path d="M-0.9306287946330415 -0.5867851749078271 C54.371123102177464 0.06052886164219884, 108.6443572105301 1.9274601816687889, 244.5771146588421 -0.44813479478204005 M0.31940693483916877 0.43911748089079256 C90.49040887315927 1.1980796973677967, 180.32290925748043 1.1345896605533405, 243.9053248753286 -0.3465884920508217 M241.5177806187421 -1.119101332500577 C243.3143040797815 22.173698828579536, 242.67998423791977 39.36293568094383, 244.76466240175068 59.178920639678836 M242.8102383678779 -0.8910927986726165 C243.43115175079066 14.284424357958855, 243.19972244213778 26.38289321289355, 242.6762836938724 59.05031264666468 M243.15132609554212 56.51118590668489 C157.0555135738506 57.40121046738854, 70.32701347012805 57.92299678184215, -0.7432439282732237 59.43436271286268 M243.06533426797958 58.034579871948544 C183.82177714030541 57.89499622457572, 124.93997513860029 56.67880829329655, 0.8054562724653832 58.01243012720001 M-0.9654674958437681 57.985982490703464 C-2.230557028645761 38.0361810634938, -2.419125680321939 19.979276288505808, 1.942886607721448 1.0794413220137358 M0.9351546233519912 58.91629818920046 C-0.019675228751681595 35.169116304931336, 0.6425054632057922 12.902320200996684, 0.6011705761775374 -0.8951173340901732" stroke="#000000" stroke-width="1" fill="none"></path></g><g transform="translate(269.750244140625 113.52334594726562) rotate(0 123.85287475585938 22.203765869140625)"><path d="M-0.7528807899608818 0.701467995731172 C56.72803169900195 -1.2606624709230538, 115.3094457143425 -0.2520208906137341, 248.94918002772962 0.20484140100095585 M-0.7681669083582858 -0.40341823630457446 C69.71811360880105 0.9119755859766363, 140.58610990201637 1.239678633905354, 247.6777920975265 -0.6992952373853962 M247.3933430481702 -0.17240195162594318 C249.89432473649867 12.09272072198757, 246.79498566856273 23.080696102510263, 246.31547965295613 42.6911794077605 M248.31796229537576 0.12327990774065256 C248.90940202028455 16.980715691919414, 247.68263808638753 35.5256295415889, 248.35034749563783 43.796813496388495 M247.70322680958748 44.0619695538714 C173.82592038030967 43.28227788463279, 98.4031582752216 44.42040864333423, 1.1374536599802039 45.37999735071469 M248.0814006960677 43.70188195729479 C194.85674393386583 42.58509582118526, 141.8681295781532 43.785666976749106, -0.17152741205072433 44.67053299411305 M-1.06648282520473 44.215076280757785 C2.24862829673377 31.997950487037528, -1.5079869247666267 21.453262361163944, 0.7080440688878298 1.9952492844313383 M-0.2129670912399888 44.2730704927817 C-0.9820612002171691 29.217180063658287, -0.798857711628836 13.804639282056847, -0.08153899852186441 0.031002351082861423" stroke="#000000" stroke-width="1" fill="none"></path></g><g transform="translate(593.3545227050781 208.58499145507812) rotate(0 69.30563354492188 26.693115234375)"><path d="M-0.4183270800858736 -1.06648282520473 C45.83416671193913 2.812945364002431, 90.61499416790457 -0.9436698574979658, 137.59965987317264 0.7080440688878298 M0.5142588103190064 -0.2129670912399888 C55.27712045521017 -1.8375569197945474, 110.46095015582642 -1.6543534312062143, 137.66465149167925 -0.08153899852186441 M138.39975876919925 -1.7181458305567503 C138.26854663271908 14.30291998703683, 139.79059898037914 33.473172892643106, 139.4479104410857 54.997438268736005 M138.67370162252337 -0.22267302218824625 C137.42907980191674 12.513707684064913, 138.4740052233931 24.418826755491413, 138.22128916624933 52.76188064273447 M139.26212371699512 54.88647969253361 C95.42581658040405 52.496799643083406, 54.94633431869089 51.496726627393556, 1.2419904004782438 53.50485195405781 M138.48194909933954 53.07751084025949 C83.11600509823168 51.90726920065135, 27.78119760988018 52.631421557037534, -0.6915241098031402 52.82592616137117 M-0.8198186624795198 51.91957391984761 C-0.7806219697430834 41.59762085122861, 1.5634404182001844 26.21550428468481, 0.5576443802565336 -1.9481206368654966 M0.09003273490816355 53.3563772207126 C1.4221917699788946 41.96014456338594, 0.18620860686053214 30.42228650170136, 0.08200389984995127 0.41024965699762106" stroke="#000000" stroke-width="1" fill="none"></path></g><g transform="translate(285.02459716796875 208.23965454101562) rotate(0 89.01144409179688 28.4364013671875)"><path d="M-0.6174392569810152 -0.41037373058497906 C37.93876834301927 -0.26962283301228074, 78.47619046633498 -1.1528325979697087, 176.9022795688361 -0.898442966863513 M-0.7333282744511962 -0.48913603369146585 C47.73050088172568 1.4126275906872428, 93.66424828894016 1.0085546205353415, 177.048827865161 -0.8656310671940446 M177.96318168751895 1.907727973535657 C178.2610943582494 11.508466992841182, 177.974560585304 24.309418490784402, 178.843387497589 55.19518859870732 M178.335191228427 -0.8197228545323014 C177.297109441193 16.8514211935217, 178.84319071594084 34.48415028643654, 177.9448400819674 57.41288912948221 M178.67816962115467 55.963075237348676 C114.07411228966549 57.17845188924445, 54.701635692429235 56.71340542384757, 1.4063502084463835 58.80371464975178 M178.5873054349795 57.85794437583536 C132.85258725907914 58.7061462392569, 89.11201829124764 57.95361784002785, -0.3242773627862334 57.680223680101335 M1.6873756181448698 56.18126620538533 C-1.204815564107705 45.139939442319545, -1.838772890519906 35.91759957195395, 1.888592017814517 0.22529192455112934 M-0.8376729106530547 57.56373260077089 C0.2909925031048284 42.626134072121175, 1.0119757401329503 28.800694318801057, 0.33379120472818613 0.4352434342727065" stroke="#000000" stroke-width="1" fill="none"></path></g><g transform="translate(10 197.87857055664062) rotate(0 71.76551818847656 34.922607421875)"><path d="M1.9702832829207182 -0.4556501340121031 C55.28382741908236 1.138049714937715, 107.75021693793443 -1.4586686559767443, 145.1458782684058 -1.9670576881617308 M-0.34576826449483633 -0.5798954302445054 C44.06329508345793 -2.1078279495982812, 89.3818518777608 -0.26665784724041686, 143.6436823392287 -0.46675499621778727 M144.9128961097449 -0.24883840791881084 C143.69784716665697 17.045041372575863, 144.8615163356061 32.37140902233323, 144.40152324549854 69.11684639938176 M143.67220268491656 0.2388517027720809 C142.65963513330948 24.78436432204276, 142.6634152300788 47.443683665861776, 142.71354175452143 70.56229544337839 M141.95218671672046 69.19326575286686 C99.400632189547 69.27179192995146, 51.674164256001475 70.94235795234755, -0.17272870428860188 68.05793012864888 M142.5776562774554 69.23443198855966 C87.16641370599785 70.31524123519199, 29.10295803792168 70.3248016115977, -0.4083093022927642 70.34688386972994 M-0.6035563219338655 71.57799877412617 C-1.0052356339267363 48.13779120085114, -0.5459236121944059 26.17697091090131, -0.3647193778306246 -1.3690872620791197 M0.9981865072622895 69.30610690172762 C1.1319735992826692 46.871456965656165, 0.8602162052072754 23.16212498460181, 0.000022479332983493805 -0.9149001175537705" stroke="#000000" stroke-width="1" fill="none"></path></g><g><g transform="translate(381.5798950195315 71.92160797119152) rotate(0 -0.47710622114061607 17.005455217584966)"><path d="M-0.4888344783335924 0.27089635916054244 C-0.7286211787412564 5.632050005470713, -2.2718714335312447 27.818877136583126, -2.4242828745394944 33.27117725200951 M1.4553886912018061 -0.6324869976192713 C1.6521558266629777 5.418877873246869, 0.2940929068873325 28.873553481722873, -0.3222979929298164 34.64339743278921" stroke="#000000" stroke-width="1" fill="none"></path></g><g transform="translate(381.5798950195315 71.92160797119152) rotate(0 -0.47710622114061607 17.005455217584966)"><path d="M-4.464006944294141 16.831147205402708 C-4.150099017648929 21.805609335460833, -3.5662806249639787 25.491873540263636, -1.3782476655839218 35.17307728588601 M-4.133176565211854 18.436896202297437 C-2.878245895445579 25.19351475349195, -2.210024166761445 30.302040304232516, 0.2421900091396424 34.08354925528323" stroke="#000000" stroke-width="1" fill="none"></path></g><g transform="translate(381.5798950195315 71.92160797119152) rotate(0 -0.47710622114061607 17.005455217584966)"><path d="M6.997369685749202 17.711675950779753 C4.806087299836256 22.44760817860441, 2.892818118289507 25.942031781723177, -1.3782476655839213 35.17307728588601 M7.328200064831489 19.317424947674482 C4.208859637438278 25.701547515965125, 0.5008405090287777 30.47386512277829, 0.24219000913964217 34.08354925528323" stroke="#000000" stroke-width="1" fill="none"></path></g></g><g><g transform="translate(263.0361938476565 167.91045379638683) rotate(0 -48.43656918658871 11.59785713224673)"><path d="M-1.1823819559067488 -0.35939357466995714 C-17.569256492579978 3.689534324531754, -81.51206536305448 20.641298260415596, -97.27086716108025 24.78939341120422 M0.39772878790274246 -1.5936791467107834 C-15.724209045923004 2.084831903235366, -79.01918293054527 19.11919791266943, -95.12971514379606 23.1384197360836" stroke="#000000" stroke-width="1" fill="none"></path></g><g transform="translate(263.0361938476565 167.91045379638683) rotate(0 -48.43656918658871 11.59785713224673)"><path d="M-71.02665835524527 4.302573122752822 C-78.43300775227041 13.215888735262908, -88.439526429539 20.995719389024472, -93.81353728203104 24.359984995704146 M-70.54327101445375 5.892900470381594 C-75.31818868100619 9.071534090514307, -81.20295738335659 13.086031920300863, -94.80298354486004 22.79943197676912" stroke="#000000" stroke-width="1" fill="none"></path></g><g transform="translate(263.0361938476565 167.91045379638683) rotate(0 -48.43656918658871 11.59785713224673)"><path d="M-65.86316758201417 24.163549066059247 C-75.35259642770811 25.329230652719744, -87.36013131551448 25.412304099963045, -93.81353728203104 24.359984995704146 M-65.37978024122265 25.75387641368802 C-71.32577852525313 24.829011559217324, -78.28885117701287 24.695894967028345, -94.80298354486004 22.79943197676912" stroke="#000000" stroke-width="1" fill="none"></path></g></g><g><g transform="translate(387.4051666259768 169.22808837890636) rotate(0 -0.5201491509425864 16.86890391133724)"><path d="M0.4893329601734877 -0.20867946557700634 C0.2412541251629592 5.195932992175222, -0.3728691358119249 28.12423147745431, -0.3664828676730394 33.613838060572746 M-0.7129059650748968 -1.3638401303440333 C-1.2492474772781135 4.743081559166313, -1.6322443010658028 29.28562950752676, -1.5069318368285896 35.10164795301855" stroke="#000000" stroke-width="1" fill="none"></path></g><g transform="translate(387.4051666259768 169.22808837890636) rotate(0 -0.5201491509425864 16.86890391133724)"><path d="M-7.539111691820103 18.739962262038745 C-4.963784491704502 26.20814664581879, -3.9482824998557287 30.832563901187775, -2.1925866095019133 36.082604642317236 M-7.370686043164812 20.047412063574154 C-5.45606619800016 25.959497459052574, -2.052510888969749 31.377355448663668, -0.7056056934206736 35.591743422908216" stroke="#000000" stroke-width="1" fill="none"></path></g><g transform="translate(387.4051666259768 169.22808837890636) rotate(0 -0.5201491509425864 16.86890391133724)"><path d="M3.989805991107377 18.758431773359398 C2.028330988149097 26.266360748085063, -1.4927866576030326 30.883510265921476, -2.1925866095019133 36.082604642317236 M4.1582316397626675 20.065881574894807 C1.4855180081406933 25.947946934803287, 0.3015780826640053 31.358455683358333, -0.7056056934206736 35.591743422908216" stroke="#000000" stroke-width="1" fill="none"></path></g></g><g><g transform="translate(524.4712829589846 165.80893707275402) rotate(0 32.093530814657015 18.681122001549227)"><path d="M0.4867419440299272 -0.47961973138153546 C11.393757152433198 6.129894334202011, 54.388276747738324 32.898836233342685, 64.9039188940078 39.1392680387944 M-0.7168572646938265 -1.7770240356959404 C10.17337205324943 4.560771634535243, 53.953765241050476 30.973896904146915, 64.52074533337728 37.548322842475024" stroke="#000000" stroke-width="1" fill="none"></path></g><g transform="translate(524.4712829589846 165.80893707275402) rotate(0 32.093530814657015 18.681122001549227)"><path d="M34.3148588853111 33.40384283451167 C44.27945725856481 32.594048484173705, 48.155437074387386 35.393291802555055, 65.13231386067346 38.57270395664498 M34.278618804008275 32.05887826600847 C44.74338722975138 33.333319919418535, 53.48000078428274 34.83814331831857, 65.02776688626037 37.98570206204429" stroke="#000000" stroke-width="1" fill="none"></path></g><g transform="translate(524.4712829589846 165.80893707275402) rotate(0 32.093530814657015 18.681122001549227)"><path d="M45.01137321123848 15.890859546074775 C52.1711604036749 19.59293024340086, 53.31789994840068 26.86065159130171, 65.13231386067346 38.57270395664498 M44.97513312993566 14.545894977571574 C52.43176423771009 20.997667276013292, 58.01249847653224 27.669488075400352, 65.02776688626037 37.98570206204429" stroke="#000000" stroke-width="1" fill="none"></path></g></g></svg>